<svg width="800" height="600" xmlns="http://www.w3.org/2000/svg">
 <!-- Created with Method Draw - http://github.com/duopixel/Method-Draw/ -->
 <defs>
  <filter id="svg_27_blur">
   <feGaussianBlur stdDeviation="1" in="SourceGraphic"/>
  </filter>
 </defs>
 <g>
  <title>background</title>
  <rect fill="none" id="canvas_background" height="602" width="802" y="-1" x="-1"/>
  <g display="none" overflow="visible" y="0" x="0" height="100%" width="100%" id="canvasGrid">
   <rect fill="url(#gridpattern)" stroke-width="0" y="0" x="0" height="100%" width="100%"/>
  </g>
 </g>
 <g>
  <title>Layer 1</title>
  <path filter="url(#svg_27_blur)" id="svg_2" d="m256.5,155.7125" stroke-width="1.5" stroke="#000" fill="#fff"/>
  <path filter="url(#svg_27_blur)" d="m288.5,120.712494c0,1 0,1 0,2c0,0 0.38269,1.076126 0,2c-0.541199,1.306564 -2,1 -2,2c0,0 0,1 -1,2c-1,1 -1,2 -1,2c0,1 -0.076126,1.61731 -1,2c-1.306564,0.541199 -1,2 -1,2c-1,0 -2,2 -2,3c0,1 -1.458801,0.693436 -2,2c-0.765366,1.847763 -1,2 -2,3c0,0 1.051468,1.298691 0,3c-1.175568,1.902115 -3.486252,0.823746 -4,3c-0.229752,0.973251 -0.852737,2.173096 -2,3c-1.813995,1.307449 -2,2 -4,4c-1,1 -1.723984,2.222733 -5,6c-0.92659,1.068375 -1.353653,5.037155 -5,9c-3.028122,3.29097 -6.41156,5.404007 -10,10c-2.610977,3.34407 -7.917526,8.056641 -10,11c-2.887863,4.081696 -7.222733,7.723984 -11,11c-3.205124,2.779785 -7.960175,7.083984 -10,8c-4.91256,2.20607 -10.211678,5.714127 -13,8c-3.281013,2.689789 -10.380737,5.522217 -13,8c-3.632271,3.436081 -5.881523,5.190277 -9,7c-1.933998,1.122345 -4.310005,1.337494 -7,3c-2.406006,1.487 -5,2 -9,4l-3,2" id="svg_12" stroke-width="18.5" stroke="#000" fill="none"/>
  <path filter="url(#svg_27_blur)" d="m316.5,172.712494c0,1 -1.458801,1.693436 -2,3c-0.38269,0.923874 -0.948532,3.298691 -2,5c-1.175568,1.902115 -2.95517,1.549149 -4,5c-0.28978,0.957092 -1.692551,2.186005 -3,4c-0.826904,1.147263 -0.296997,2.613831 -3,5c-1.676331,1.479843 -4.824432,3.097885 -6,5c-1.051468,1.701309 -4.206802,5.812653 -6,8c-2.285873,2.78833 -6.464462,5.464462 -10,9c-3.535538,3.535538 -6.692551,6.186005 -8,8c-2.480713,3.441803 -4.613831,3.296997 -7,6c-1.479843,1.676331 -3.152237,2.234634 -5,3c-2.613129,1.082397 -2.852737,3.173096 -4,4c-1.813995,1.307449 -3.418854,2.418854 -5,4c-1.581146,1.581146 -1.527863,2.763931 -6,5c-0.894424,0.447205 -2.186005,0.692535 -4,2c-1.147263,0.826904 -3,2 -5,4c-1,1 -3.346191,1.705475 -5,4c-1.307449,1.813995 -2.906326,2.103394 -4,3c-2.78833,2.285889 -5.076126,2.61731 -6,3c-1.306564,0.541199 -3.693436,3.458801 -5,4c-0.923874,0.38269 -3.415291,2.188751 -4,3c-1.849014,2.565369 -4.152245,1.234619 -6,2c-2.613129,1.082397 -2.228363,1.851959 -5,3c-1.306564,0.541199 -2.934143,2.144287 -5,3c-2.921562,1.210144 -4,2 -7,3c-3,1 -5,2 -9,3l-3,1l-3,1l-6,1" id="svg_13" stroke-width="18.5" stroke="#000" fill="none"/>
  <path filter="url(#svg_27_blur)" d="m268.5,244.712494c0,1 1,2 1,2c0,2 0.458801,2.693451 1,4c0.765366,1.847748 0,4 0,4c1,4 1.493454,3.878571 2,7c0.160187,0.987091 0,2 0,5c0,0 0.458801,1.693451 1,3c0.38269,0.923889 1,1 1,3c0,1 0,2 0,4c0,1 0,2 0,3c0,2 2,4 2,4c0,2 1,4 1,6c0,1 1,4 1,5c0,2 0,4 0,4c1,2 1.458801,3.693451 2,5c0.765366,1.847748 -0.480545,3.038727 0,6c0.506546,3.121429 2,4 2,6c0,3 0,4 0,7c0,3 0,5 0,8c0,2 0,4 0,6c0,2 0,5 0,6c0,3 0,5 0,8c0,1 0,4 0,5c0,2 0,4 0,6c0,1 0,3 0,5c0,1 0,2 0,4c0,1 0,2 0,4c0,1 0,4 0,5c0,1 0,3 0,5c0,1 0,2 0,4c0,1 0,3 0,5c0,1 0,3 0,5c0,0 0,2 0,4c0,0 0,3 0,4c0,1 0,4 0,5c0,1 1,3 1,4c0,3 0,5 0,6c0,1 0,2 0,3c0,1 1,2 1,3c0,1 0,2 0,3c0,1 0,2 0,3c0,1 0,2 0,3c0,1 0,2 0,3c0,1 0,3 0,5c0,1 0,2 0,4c0,1 0,2 0,4c0,1 0,2 0,2c0,1 0,2 0,3l0,1l0,0l0,1" id="svg_14" stroke-width="18.5" stroke="#000" fill="none"/>
  <path filter="url(#svg_27_blur)" d="m410.5,86.712502c0,1 0,2 0,3c0,1 -0.458801,0.693436 -1,2c-0.38269,0.923882 -0.234619,3.152245 -1,5c-0.541199,1.306564 -1.540497,4.053505 -2,6c-1.027496,4.352501 -3.496216,7.907784 -4,12c-0.244354,1.985016 -1.486267,3.823738 -2,5.999992c-0.459503,1.946503 0.307465,3.186005 -1,5c-0.826904,1.147263 -1.173096,1.852737 -2,3c-1.307465,1.813995 -1,2 -1,3c0,3 -0.337494,3.310013 -2,6c-0.7435,1.203003 -1.486267,1.823746 -2,4c-0.68927,2.919754 -0.173096,4.852737 -1,6c-1.307465,1.813995 -2.486267,2.823746 -3,5c-0.459503,1.946503 -0.585785,4.585785 -2,6c-0.707092,0.707108 -1.692535,2.186005 -3,4c-1.653809,2.29454 -2.234619,5.152237 -3,7c-0.541199,1.306564 -3.486267,2.823746 -4,5c-0.229767,0.973251 -1.152252,3.234634 -3,4c-1.306549,0.541199 -2.076111,3.61731 -3,4c-1.306549,0.541199 -2,2 -3,3c-1,1 -2.149353,1.474274 -3,2c-1.9021,1.175568 -1.07843,2.789856 -4,4c-2.065857,0.855713 -3.026764,2.770248 -4,3c-2.176239,0.513748 -4,3 -5,4c0,0 -1.693451,0.458801 -3,1c-0.923889,0.38269 -2,1 -4,2l0,0" id="svg_15" stroke-width="18.5" stroke="#000" fill="none"/>
  <path filter="url(#svg_27_blur)" d="m403.5,135.712494c0,0 0.61731,0.076126 1,1c0.541199,1.306564 3,2 4,3c2,2 3.911438,3.092682 6,5c5.767273,5.266754 9.410919,6.692383 14,10c3.627991,2.614899 6.878571,4.493454 10,5c1.974182,0.320358 2.309998,1.337494 5,3c1.203003,0.7435 3,3 5,4c0,0 2,0 4,2c1,1 2.053497,1.540497 4,2c2.176239,0.513748 3.693451,3.458801 5,4c1.847748,0.765366 5,1 7,3c1,1 4,2 6,3c2,1 5.025818,1.679642 7,2c3.121429,0.506546 5,1 7,2c2,1 3.823761,1.486252 6,2c1.946503,0.459503 3,0 5,0c1,0 4,0 5,0c1,0 3,0 5,0c3,0 4,0 7,0c2,0 4,0 6,0c2,0 3,0 5,0c1,0 3,0 5,0c2,0 4,0 7,0l1,0l1,0l3,0" id="svg_16" stroke-width="18.5" stroke="#000" fill="none"/>
  <path filter="url(#svg_27_blur)" d="m386.5,218.712494c1,0 2,0 3,0c1,0 2,-1 3,-1c1,0 2,0 4,0c1,0 4,0 6,0c2,0 5,0 6,0c1,0 4,0 4,0c2,0 3,0 4,0c0,0 1,0 3,0c1,0 1,0 3,0c1,0 2,0 2,0c2,0 3,0 4,0c3,0 4,0 5,0c2,0 3,0 4,0c1,0 3,0 3,0c2,0 3,0 4,0c1,0 2,0 3,0c1,0 2,0 3,0l1,0l1,0l0,0" id="svg_23" stroke-width="18.5" stroke="#000" fill="none"/>
  <path filter="url(#svg_27_blur)" d="m361.5,282.712494c3,0 10.020294,0.854248 28,0c21.071259,-1.001129 47,-8 50,-8c3,0 5,0 5,0c1,0 2,0 3,0c1,0 1,-1 2,-1c2,0 3,-1 3,-1c3,0 4,0 5,0c3,0 5,0 7,0c2,0 4.106995,-0.080994 8,-1c2.176239,-0.513733 5,-1 9,-1c3,0 6,0 10,0c1,0 3,0 7,0c1,0 3,0 4,0c2,0 4,0 5,0c1,0 2,0 3,0c1,0 2,0 3,0l1,0l1,0" id="svg_24" stroke-width="18.5" stroke="#000" fill="none"/>
  <path filter="url(#svg_27_blur)" d="m418.5,235.712494c0,1 0,3 1,7c1,4 0.593994,9.504333 3,14c0.667297,1.246887 1.486267,2.823761 2,5c0.459503,1.946503 0,5 0,8c0,1 0,5 0,6c0,3 1,6 1,10c0,2 0,5 0,8c0,2 -0.459503,3.053497 0,5c0.513733,2.176239 1,4 1,6c0,2 0,6 1,8c1,2 1,5 1,8c0,2 0,4 0,8c0,2 0.486267,3.823761 1,6c0.919006,3.893005 2,7 2,9c0,2 0.486267,4.823761 1,7c0.229767,0.973236 -0.459503,4.053497 0,6c0.513733,2.176239 1,5 1,6c0,1 0,4 0,5c0,2 0,4 0,5c0,4 0,5 0,6c0,2 0,3 0,4c0,1 0,2 0,4c0,0 0,2 0,4c0,0 0,1 0,2c0,1 0,2 0,3c0,1 0,2 0,3c0,0 0,2 0,3c0,1 0,2 0,3c0,2 0,3 0,4c0,2 0,4 0,5c0,1 0,1 0,2c0,1 0,2 -1,3c0,0 0.306549,0.458801 -1,1c-0.923889,0.38269 -1,1 -2,1c-1,0 -1,0 -4,0c-1,0 -2.152252,-0.234619 -4,-1c-1.306549,-0.541199 -2.076111,-0.61731 -3,-1c-1.306549,-0.541199 -1.852722,-3.173096 -3,-4c-1.813995,-1.307465 -3,-2 -4,-3c-1,-1 -3,-3 -5,-4c-2,-1 -4,-4 -5,-5c-1,-1 -3.418854,-2.418854 -5,-4c-1.581146,-1.581146 -2,-4 -3,-5c-1,-1 -1,-1 -1,-2l-1,-1" id="svg_25" stroke-width="18.5" stroke="#000" fill="none"/>
  <path filter="url(#svg_27_blur)" d="m364.5,334.712494c0,1 -1.810883,4.018036 -2,5c-1.018372,5.287994 -2.824432,6.0979 -4,8c-1.577179,2.551941 0,3 -1,5c-1,2 -1.173096,2.852722 -2,4c-1.307465,1.813995 -1.292908,1.292908 -2,2c-0.707092,0.707092 0.414215,2.585785 -1,4c-0.707092,0.707092 -1.292908,1.292908 -2,2c-0.707092,0.707092 -1.292908,0.292908 -2,1c-0.707092,0.707092 0,1 -1,1l-1,0l0,1" id="svg_26" stroke-width="18.5" stroke="#000" fill="none"/>
  <path filter="url(#svg_27_blur)" d="m466.5,331.712494c1,0 6.519287,3.558197 9,7c1.307465,1.813995 4.458801,3.693451 5,5c0.38269,0.923889 2,2 3,3c1,1 1.61731,2.076111 2,3c0.541199,1.306549 0.693451,2.458801 2,3c0.923889,0.38269 0.292908,1.292908 1,2c0.707092,0.707092 2,0 2,0c1,1 2,2 2,2l1,0l1,0" id="svg_27" stroke-width="18.5" stroke="#000" fill="none"/>
  <path d="m386.5,215.712494c0,0 0,0 0,-1c0,0 1,0 5,0c4,0 8.080261,-0.689255 11,0c2.176239,0.513748 4,1 4,1c1,0 3,0 4,0c1,0 2.152252,-0.765366 4,0c1.306549,0.541199 4,1 5,1c3,0 4.085815,-0.579575 6,0c3.450836,1.04483 4,2 5,2c1,0 4,0 6,0c1,0 2,0 4,0c2,0 4,0 6,0c0,0 1,0 2,0l1,0" id="svg_28" stroke-width="18.5" stroke="#000" fill="none"/>
 </g>
</svg>